<?xml version="1.0" encoding="UTF-8"?>
<svg id="Layer_2" data-name="Layer 2" xmlns="http://www.w3.org/2000/svg" viewBox="0 0 15.94 15.94">
  <defs>
    <style>
      .cls-1 {
        fill: #fff;
      }

      .cls-2 {
        fill: #242860;
      }

      .cls-3 {
        fill: #7590c9;
      }
    </style>
  </defs>
  <g id="Layer_1-2" data-name="Layer 1">
    <g>
      <circle class="cls-2" cx="7.97" cy="7.97" r="7.97"/>
      <g>
        <path class="cls-1" d="M10.87,12.15L7.97,3.16l-2.88,9h0c-.05,.12-.12,.23-.22,.31-.09,.09-.21,.13-.34,.13-.07,0-.14,0-.2-.02-.07-.01-.14-.03-.21-.05h.01c-.5-.16-.68-.45-.55-.86L6.59,2.39c.04-.14,.12-.26,.23-.36,.11-.1,.24-.16,.39-.17,.15-.03,.29-.05,.43-.06,.14-.01,.25-.02,.33-.02s.19,0,.33,.02c.14,.01,.29,.03,.43,.05,.12,.02,.24,.08,.36,.2,.12,.12,.21,.23,.27,.35,.49,1.54,.99,3.08,1.5,4.64,.5,1.56,1,3.1,1.49,4.64,.12,.41-.06,.7-.55,.86-.07,.02-.13,.03-.19,.05-.06,.01-.12,.02-.19,.02-.12,0-.23-.04-.33-.13-.1-.08-.17-.19-.22-.33h0Z"/>
        <ellipse class="cls-3" cx="7.95" cy="9.26" rx="1.01" ry="1.03"/>
      </g>
    </g>
  </g>
</svg>