<svg width="1012" height="325" viewBox="0 0 1012 325" fill="none" xmlns="http://www.w3.org/2000/svg">
<path d="M150.526 213.325L90.9786 28.3516L31.7021 213.325V213.05C30.6194 215.802 29.1398 218.041 27.2631 219.766C25.3504 221.527 23.0407 222.408 20.334 222.408C18.8904 222.408 17.501 222.28 16.1657 222.023C14.7943 221.729 13.3868 221.399 11.9433 221.032H12.2139C1.92852 217.729 -1.86085 211.857 0.845841 203.415L62.5584 12.6619C63.4606 9.72577 65.0485 7.24846 67.3221 5.2299C69.5597 3.21134 72.2122 2.01855 75.2798 1.65154C78.3474 1.10103 81.3247 0.678967 84.2119 0.385359C87.099 0.128452 89.3546 0 90.9786 0C92.6026 0 94.8582 0.128452 97.7453 0.385359C100.632 0.678967 103.61 1.00928 106.677 1.37629C109.204 1.7433 111.694 3.11959 114.148 5.50516C116.566 7.89072 118.406 10.2763 119.67 12.6619C129.774 44.2247 140.024 76.0078 150.418 108.011C160.775 140.051 171.006 171.853 181.111 203.415C183.638 211.857 179.848 217.729 169.743 221.032C168.3 221.399 167 221.729 165.846 222.023C164.655 222.28 163.337 222.408 161.894 222.408C159.368 222.408 157.076 221.527 155.019 219.766C152.926 218.041 151.428 215.802 150.526 213.05V213.325ZM111.279 153.869C111.279 159.741 109.258 164.733 105.216 168.843C101.138 172.99 96.2115 175.064 90.4373 175.064C84.663 175.064 79.791 172.99 75.8211 168.843C71.8513 164.733 69.8664 159.741 69.8664 153.869C69.8664 147.997 71.8513 142.987 75.8211 138.84C79.791 134.73 84.663 132.674 90.4373 132.674C96.2115 132.674 101.138 134.73 105.216 138.84C109.258 142.987 111.279 147.997 111.279 153.869ZM333.227 216.628L282.071 129.371H261.229C258.162 129.371 255.762 128.123 254.03 125.628C252.333 123.169 251.485 119.829 251.485 115.608C251.485 106.249 255.275 101.57 262.853 101.57H294.522C301.198 101.57 305.89 99.6433 308.596 95.7897C311.303 91.9361 312.656 87.7155 312.656 83.1278V47.6196C312.656 43.032 311.303 38.8114 308.596 34.9577C305.89 31.1041 301.198 29.1773 294.522 29.1773H237.411V208.645C237.411 217.454 232.087 221.858 221.441 221.858C210.795 221.858 205.472 217.454 205.472 208.645V17.8918C205.472 11.2856 207.132 6.88146 210.452 4.67939C213.808 2.47733 217.832 1.37629 222.524 1.37629H301.288C305.98 1.37629 310.852 2.38556 315.905 4.40412C320.957 6.42268 325.829 8.99176 330.521 12.1113H330.25C334.942 15.5979 338.55 20.1489 341.077 25.7641C343.603 31.3427 344.866 37.8021 344.866 45.1423V85.3299C344.866 100.194 339.994 111.296 330.25 118.636C328.265 120.104 326.136 121.48 323.862 122.765C321.625 124.05 319.333 125.334 316.987 126.619L360.294 199.287C360.836 200.204 361.377 201.397 361.918 202.865C362.46 204.333 362.73 205.526 362.73 206.443C362.73 210.847 359.663 215.068 353.528 219.105V218.83C349.377 221.399 345.859 222.684 342.971 222.684C338.821 222.684 335.483 220.573 332.957 216.353L333.227 216.628ZM460.117 29.1773V208.921C460.117 217.729 454.704 222.133 443.877 222.133C433.267 222.133 427.961 217.729 427.961 208.921V29.1773H380.594C374.062 29.1773 370.634 24.4979 370.309 15.1392C370.309 5.96392 373.737 1.37629 380.594 1.37629H507.484C514.377 1.37629 517.643 5.96392 517.282 15.1392C517.282 24.4979 514.016 29.1773 507.484 29.1773H460.117Z" fill="white"/>
<path d="M669.687 213.325L610.14 28.3516L550.863 213.325V213.049C549.781 215.802 548.301 218.041 546.424 219.766C544.512 221.527 542.202 222.408 539.495 222.408C538.052 222.408 536.662 222.28 535.327 222.023C533.955 221.729 532.548 221.399 531.104 221.032H531.375C521.09 217.729 517.3 211.857 520.007 203.415L581.719 12.6619C582.622 9.72577 584.21 7.24846 586.483 5.2299C588.721 3.21134 591.373 2.01855 594.441 1.65154C597.508 1.10103 600.486 0.678967 603.373 0.385359C606.26 0.128452 608.516 0 610.14 0C611.764 0 614.019 0.128452 616.906 0.385359C619.794 0.678967 622.771 1.00928 625.838 1.37629C628.365 1.7433 630.855 3.11959 633.309 5.50515C635.727 7.89072 637.567 10.2763 638.831 12.6619C648.936 44.2247 659.185 76.0078 669.579 108.011C679.936 140.051 690.167 171.853 700.272 203.415C702.799 211.857 699.009 217.729 688.904 221.032C687.461 221.399 686.162 221.729 685.007 222.023C683.816 222.28 682.499 222.408 681.055 222.408C678.529 222.408 676.237 221.527 674.18 219.766C672.087 218.041 670.589 215.802 669.687 213.049V213.325ZM630.44 153.869C630.44 159.741 628.419 164.733 624.377 168.843C620.299 172.99 615.373 175.064 609.598 175.064C603.824 175.064 598.952 172.99 594.982 168.843C591.012 164.733 589.027 159.741 589.027 153.869C589.027 147.997 591.012 142.987 594.982 138.84C598.952 134.729 603.824 132.674 609.598 132.674C615.373 132.674 620.299 134.729 624.377 138.84C628.419 142.987 630.44 147.997 630.44 153.869ZM846.975 220.206H741.685C735.008 220.206 730.497 218.463 728.151 214.976C725.806 211.49 724.633 207.636 724.633 203.415V13.2124C724.633 4.40413 729.866 0 740.331 0C751.158 0 756.572 4.40413 756.572 13.2124V192.405H846.975C853.471 192.405 856.719 196.901 856.719 205.893C857.08 215.435 853.832 220.206 846.975 220.206ZM953.889 29.1773V208.921C953.889 217.729 948.476 222.133 937.649 222.133C927.003 222.133 921.68 217.729 921.68 208.921V29.1773H874.313C867.816 29.1773 864.388 24.4979 864.027 15.1392C864.027 5.96392 867.456 1.37629 874.313 1.37629H1001.26C1008.11 1.37629 1011.36 5.96392 1011 15.1392C1011 24.4979 1007.75 29.1773 1001.26 29.1773H953.889Z" fill="white"/>
<ellipse cx="90.4659" cy="153.944" rx="20.832" ry="21.1852" fill="#6B97FF"/>
<ellipse cx="609.804" cy="153.944" rx="20.832" ry="21.1852" fill="#6B97FF"/>
<path d="M2.99822 279.37C2.99822 274.629 4.06735 270.376 6.20562 266.61C8.34388 262.799 11.2491 259.824 14.9214 257.686C18.6401 255.547 22.7539 254.478 27.2629 254.478C32.5621 254.478 37.1872 255.756 41.1384 258.313C45.0895 260.87 47.9715 264.495 49.7844 269.19H42.1842C40.8362 266.262 38.8839 264.007 36.3273 262.427C33.8171 260.846 30.7957 260.056 27.2629 260.056C23.8695 260.056 20.8248 260.846 18.1288 262.427C15.4327 264.007 13.3177 266.262 11.7837 269.19C10.2497 272.072 9.48274 275.466 9.48274 279.37C9.48274 283.229 10.2497 286.622 11.7837 289.55C13.3177 292.432 15.4327 294.664 18.1288 296.244C20.8248 297.824 23.8695 298.615 27.2629 298.615C30.7957 298.615 33.8171 297.848 36.3273 296.314C38.8839 294.733 40.8362 292.479 42.1842 289.55H49.7844C47.9715 294.199 45.0895 297.801 41.1384 300.358C37.1872 302.868 32.5621 304.123 27.2629 304.123C22.7539 304.123 18.6401 303.077 14.9214 300.985C11.2491 298.847 8.34388 295.895 6.20562 292.13C4.06735 288.365 2.99822 284.112 2.99822 279.37ZM94.0926 283.136C94.0926 284.344 94.0228 285.622 93.8834 286.97H63.3434C63.5758 290.736 64.8541 293.687 67.1783 295.826C69.549 297.917 72.4078 298.963 75.7546 298.963C78.4972 298.963 80.7749 298.336 82.5878 297.081C84.4471 295.779 85.7487 294.059 86.4924 291.921H93.3256C92.3029 295.593 90.2576 298.591 87.1897 300.916C84.1217 303.193 80.31 304.332 75.7546 304.332C72.1289 304.332 68.875 303.519 65.993 301.892C63.1574 300.265 60.9262 297.964 59.2993 294.989C57.6723 291.967 56.8589 288.481 56.8589 284.53C56.8589 280.579 57.6491 277.116 59.2295 274.141C60.81 271.166 63.018 268.888 65.8535 267.308C68.7355 265.681 72.0359 264.867 75.7546 264.867C79.3804 264.867 82.5878 265.658 85.3768 267.238C88.1658 268.818 90.3041 271.003 91.7916 273.792C93.3256 276.535 94.0926 279.649 94.0926 283.136ZM87.5383 281.811C87.5383 279.394 87.0037 277.325 85.9346 275.605C84.8655 273.839 83.4012 272.514 81.5419 271.631C79.729 270.701 77.7069 270.236 75.4757 270.236C72.2683 270.236 69.5257 271.259 67.248 273.304C65.0168 275.349 63.7385 278.185 63.4131 281.811H87.5383ZM108.813 252.107V303.705H102.468V252.107H108.813ZM154.49 283.136C154.49 284.344 154.42 285.622 154.281 286.97H123.741C123.973 290.736 125.252 293.687 127.576 295.826C129.946 297.917 132.805 298.963 136.152 298.963C138.895 298.963 141.172 298.336 142.985 297.081C144.845 295.779 146.146 294.059 146.89 291.921H153.723C152.7 295.593 150.655 298.591 147.587 300.916C144.519 303.193 140.707 304.332 136.152 304.332C132.526 304.332 129.272 303.519 126.39 301.892C123.555 300.265 121.324 297.964 119.697 294.989C118.07 291.967 117.256 288.481 117.256 284.53C117.256 280.579 118.047 277.116 119.627 274.141C121.207 271.166 123.415 268.888 126.251 267.308C129.133 265.681 132.433 264.867 136.152 264.867C139.778 264.867 142.985 265.658 145.774 267.238C148.563 268.818 150.702 271.003 152.189 273.792C153.723 276.535 154.49 279.649 154.49 283.136ZM147.936 281.811C147.936 279.394 147.401 277.325 146.332 275.605C145.263 273.839 143.799 272.514 141.939 271.631C140.126 270.701 138.104 270.236 135.873 270.236C132.666 270.236 129.923 271.259 127.645 273.304C125.414 275.349 124.136 278.185 123.811 281.811H147.936ZM169.21 272.607C170.512 270.329 172.418 268.47 174.928 267.029C177.438 265.588 180.297 264.867 183.504 264.867C186.944 264.867 190.035 265.681 192.778 267.308C195.52 268.935 197.682 271.236 199.262 274.211C200.843 277.139 201.633 280.556 201.633 284.46C201.633 288.319 200.843 291.758 199.262 294.78C197.682 297.801 195.497 300.149 192.708 301.822C189.965 303.496 186.898 304.332 183.504 304.332C180.204 304.332 177.299 303.612 174.788 302.171C172.325 300.73 170.465 298.894 169.21 296.662V303.705H162.865V252.107H169.21V272.607ZM195.148 284.46C195.148 281.578 194.567 279.068 193.405 276.93C192.243 274.792 190.663 273.165 188.664 272.049C186.712 270.933 184.55 270.376 182.179 270.376C179.855 270.376 177.694 270.957 175.695 272.119C173.743 273.234 172.162 274.885 170.954 277.069C169.791 279.208 169.21 281.695 169.21 284.53C169.21 287.412 169.791 289.945 170.954 292.13C172.162 294.268 173.743 295.919 175.695 297.081C177.694 298.196 179.855 298.754 182.179 298.754C184.55 298.754 186.712 298.196 188.664 297.081C190.663 295.919 192.243 294.268 193.405 292.13C194.567 289.945 195.148 287.389 195.148 284.46ZM216.33 271.7C217.446 269.516 219.026 267.819 221.071 266.61C223.163 265.402 225.696 264.798 228.671 264.798V271.352H226.998C219.886 271.352 216.33 275.21 216.33 282.926V303.705H209.985V265.495H216.33V271.7ZM233.625 284.46C233.625 280.556 234.415 277.139 235.996 274.211C237.576 271.236 239.738 268.935 242.48 267.308C245.269 265.681 248.361 264.867 251.754 264.867C255.101 264.867 258.006 265.588 260.47 267.029C262.933 268.47 264.77 270.283 265.978 272.467V265.495H272.393V303.705H265.978V296.593C264.723 298.824 262.84 300.683 260.33 302.171C257.867 303.612 254.985 304.332 251.684 304.332C248.291 304.332 245.223 303.496 242.48 301.822C239.738 300.149 237.576 297.801 235.996 294.78C234.415 291.758 233.625 288.319 233.625 284.46ZM265.978 284.53C265.978 281.648 265.397 279.138 264.235 277C263.073 274.861 261.492 273.234 259.494 272.119C257.541 270.957 255.38 270.376 253.009 270.376C250.638 270.376 248.477 270.933 246.525 272.049C244.572 273.165 243.015 274.792 241.853 276.93C240.691 279.068 240.11 281.578 240.11 284.46C240.11 287.389 240.691 289.945 241.853 292.13C243.015 294.268 244.572 295.919 246.525 297.081C248.477 298.196 250.638 298.754 253.009 298.754C255.38 298.754 257.541 298.196 259.494 297.081C261.492 295.919 263.073 294.268 264.235 292.13C265.397 289.945 265.978 287.412 265.978 284.53ZM290.855 270.724V293.246C290.855 295.105 291.25 296.43 292.04 297.22C292.831 297.964 294.202 298.336 296.154 298.336H300.826V303.705H295.108C291.576 303.705 288.926 302.891 287.16 301.264C285.393 299.637 284.51 296.965 284.51 293.246V270.724H279.559V265.495H284.51V255.873H290.855V265.495H300.826V270.724H290.855ZM311.791 259.289C310.582 259.289 309.56 258.871 308.723 258.034C307.886 257.197 307.468 256.175 307.468 254.966C307.468 253.758 307.886 252.735 308.723 251.898C309.56 251.062 310.582 250.643 311.791 250.643C312.953 250.643 313.929 251.062 314.719 251.898C315.556 252.735 315.974 253.758 315.974 254.966C315.974 256.175 315.556 257.197 314.719 258.034C313.929 258.871 312.953 259.289 311.791 259.289ZM314.859 265.495V303.705H308.514V265.495H314.859ZM344.29 264.798C348.938 264.798 352.703 266.215 355.585 269.051C358.467 271.84 359.908 275.884 359.908 281.183V303.705H353.633V282.09C353.633 278.278 352.68 275.373 350.774 273.374C348.868 271.329 346.265 270.306 342.965 270.306C339.618 270.306 336.945 271.352 334.946 273.444C332.994 275.535 332.018 278.58 332.018 282.578V303.705H325.673V265.495H332.018V270.933C333.273 268.981 334.97 267.47 337.108 266.401C339.293 265.332 341.687 264.798 344.29 264.798ZM386.031 264.867C389.331 264.867 392.213 265.588 394.677 267.029C397.187 268.47 399.047 270.283 400.255 272.467V265.495H406.67V304.541C406.67 308.028 405.926 311.119 404.439 313.815C402.951 316.558 400.813 318.696 398.024 320.23C395.281 321.764 392.074 322.531 388.402 322.531C383.381 322.531 379.198 321.345 375.851 318.975C372.504 316.604 370.529 313.373 369.924 309.283H376.2C376.897 311.607 378.338 313.466 380.523 314.861C382.707 316.302 385.334 317.022 388.402 317.022C391.888 317.022 394.724 315.93 396.908 313.745C399.14 311.561 400.255 308.493 400.255 304.541V296.523C399 298.754 397.141 300.614 394.677 302.101C392.213 303.589 389.331 304.332 386.031 304.332C382.638 304.332 379.547 303.496 376.758 301.822C374.015 300.149 371.853 297.801 370.273 294.78C368.693 291.758 367.902 288.319 367.902 284.46C367.902 280.556 368.693 277.139 370.273 274.211C371.853 271.236 374.015 268.935 376.758 267.308C379.547 265.681 382.638 264.867 386.031 264.867ZM400.255 284.53C400.255 281.648 399.674 279.138 398.512 277C397.35 274.861 395.769 273.234 393.771 272.119C391.818 270.957 389.657 270.376 387.286 270.376C384.915 270.376 382.754 270.933 380.802 272.049C378.849 273.165 377.292 274.792 376.13 276.93C374.968 279.068 374.387 281.578 374.387 284.46C374.387 287.389 374.968 289.945 376.13 292.13C377.292 294.268 378.849 295.919 380.802 297.081C382.754 298.196 384.915 298.754 387.286 298.754C389.657 298.754 391.818 298.196 393.771 297.081C395.769 295.919 397.35 294.268 398.512 292.13C399.674 289.945 400.255 287.412 400.255 284.53ZM443.721 270.724V293.246C443.721 295.105 444.116 296.43 444.907 297.22C445.697 297.964 447.068 298.336 449.02 298.336H453.692V303.705H447.974C444.442 303.705 441.792 302.891 440.026 301.264C438.259 299.637 437.376 296.965 437.376 293.246V270.724H432.426V265.495H437.376V255.873H443.721V265.495H453.692V270.724H443.721ZM480.345 264.798C483.227 264.798 485.83 265.425 488.155 266.68C490.479 267.889 492.292 269.725 493.593 272.189C494.941 274.652 495.615 277.65 495.615 281.183V303.705H489.34V282.09C489.34 278.278 488.387 275.373 486.481 273.374C484.575 271.329 481.972 270.306 478.672 270.306C475.325 270.306 472.652 271.352 470.653 273.444C468.701 275.535 467.725 278.58 467.725 282.578V303.705H461.38V252.107H467.725V270.933C468.98 268.981 470.7 267.47 472.885 266.401C475.116 265.332 477.603 264.798 480.345 264.798ZM540.843 283.136C540.843 284.344 540.773 285.622 540.634 286.97H510.094C510.326 290.736 511.605 293.687 513.929 295.826C516.299 297.917 519.158 298.963 522.505 298.963C525.248 298.963 527.525 298.336 529.338 297.081C531.198 295.779 532.499 294.059 533.243 291.921H540.076C539.053 295.593 537.008 298.591 533.94 300.916C530.872 303.193 527.06 304.332 522.505 304.332C518.879 304.332 515.625 303.519 512.743 301.892C509.908 300.265 507.677 297.964 506.05 294.989C504.423 291.967 503.609 288.481 503.609 284.53C503.609 280.579 504.4 277.116 505.98 274.141C507.56 271.166 509.768 268.888 512.604 267.308C515.486 265.681 518.786 264.867 522.505 264.867C526.131 264.867 529.338 265.658 532.127 267.238C534.916 268.818 537.055 271.003 538.542 273.792C540.076 276.535 540.843 279.649 540.843 283.136ZM534.289 281.811C534.289 279.394 533.754 277.325 532.685 275.605C531.616 273.839 530.152 272.514 528.292 271.631C526.479 270.701 524.457 270.236 522.226 270.236C519.019 270.236 516.276 271.259 513.998 273.304C511.767 275.349 510.489 278.185 510.164 281.811H534.289ZM586.773 264.798C589.655 264.798 592.258 265.425 594.582 266.68C596.906 267.889 598.719 269.725 600.021 272.189C601.369 274.652 602.043 277.65 602.043 281.183V303.705H595.768V282.09C595.768 278.278 594.815 275.373 592.909 273.374C591.003 271.329 588.4 270.306 585.099 270.306C581.753 270.306 579.08 271.352 577.081 273.444C575.129 275.535 574.152 278.58 574.152 282.578V303.705H567.807V252.107H574.152V270.933C575.408 268.981 577.127 267.47 579.312 266.401C581.543 265.332 584.03 264.798 586.773 264.798ZM646.294 265.495V303.705H639.949V298.057C638.741 300.009 637.044 301.543 634.859 302.659C632.721 303.728 630.35 304.263 627.747 304.263C624.772 304.263 622.099 303.658 619.729 302.45C617.358 301.195 615.475 299.335 614.081 296.872C612.733 294.408 612.059 291.41 612.059 287.877V265.495H618.334V287.04C618.334 290.805 619.287 293.711 621.193 295.756C623.099 297.755 625.702 298.754 629.002 298.754C632.396 298.754 635.068 297.708 637.021 295.616C638.973 293.525 639.949 290.48 639.949 286.482V265.495H646.294ZM702.957 264.798C705.932 264.798 708.582 265.425 710.906 266.68C713.23 267.889 715.066 269.725 716.414 272.189C717.762 274.652 718.436 277.65 718.436 281.183V303.705H712.161V282.09C712.161 278.278 711.208 275.373 709.302 273.374C707.443 271.329 704.909 270.306 701.702 270.306C698.402 270.306 695.775 271.375 693.823 273.513C691.871 275.605 690.894 278.65 690.894 282.647V303.705H684.619V282.09C684.619 278.278 683.666 275.373 681.76 273.374C679.901 271.329 677.368 270.306 674.16 270.306C670.86 270.306 668.234 271.375 666.281 273.513C664.329 275.605 663.353 278.65 663.353 282.647V303.705H657.008V265.495H663.353V271.003C664.608 269.004 666.281 267.47 668.373 266.401C670.511 265.332 672.859 264.798 675.415 264.798C678.623 264.798 681.458 265.518 683.922 266.959C686.386 268.4 688.222 270.515 689.43 273.304C690.499 270.608 692.266 268.516 694.729 267.029C697.193 265.541 699.936 264.798 702.957 264.798ZM726.474 284.46C726.474 280.556 727.264 277.139 728.845 274.211C730.425 271.236 732.587 268.935 735.329 267.308C738.118 265.681 741.209 264.867 744.603 264.867C747.949 264.867 750.855 265.588 753.318 267.029C755.782 268.47 757.618 270.283 758.827 272.467V265.495H765.242V303.705H758.827V296.593C757.572 298.824 755.689 300.683 753.179 302.171C750.715 303.612 747.833 304.332 744.533 304.332C741.14 304.332 738.072 303.496 735.329 301.822C732.587 300.149 730.425 297.801 728.845 294.78C727.264 291.758 726.474 288.319 726.474 284.46ZM758.827 284.53C758.827 281.648 758.246 279.138 757.084 277C755.921 274.861 754.341 273.234 752.342 272.119C750.39 270.957 748.228 270.376 745.858 270.376C743.487 270.376 741.326 270.933 739.373 272.049C737.421 273.165 735.864 274.792 734.702 276.93C733.539 279.068 732.958 281.578 732.958 284.46C732.958 287.389 733.539 289.945 734.702 292.13C735.864 294.268 737.421 295.919 739.373 297.081C741.326 298.196 743.487 298.754 745.858 298.754C748.228 298.754 750.39 298.196 752.342 297.081C754.341 295.919 755.921 294.268 757.084 292.13C758.246 289.945 758.827 287.412 758.827 284.53ZM794.581 264.798C799.229 264.798 802.995 266.215 805.877 269.051C808.759 271.84 810.2 275.884 810.2 281.183V303.705H803.924V282.09C803.924 278.278 802.971 275.373 801.065 273.374C799.16 271.329 796.556 270.306 793.256 270.306C789.909 270.306 787.236 271.352 785.238 273.444C783.285 275.535 782.309 278.58 782.309 282.578V303.705H775.964V265.495H782.309V270.933C783.564 268.981 785.261 267.47 787.399 266.401C789.584 265.332 791.978 264.798 794.581 264.798ZM845.498 272.607C846.8 270.329 848.706 268.47 851.216 267.029C853.726 265.588 856.585 264.867 859.792 264.867C863.232 264.867 866.323 265.681 869.066 267.308C871.808 268.935 873.97 271.236 875.55 274.211C877.131 277.139 877.921 280.556 877.921 284.46C877.921 288.319 877.131 291.758 875.55 294.78C873.97 297.801 871.785 300.149 868.996 301.822C866.253 303.496 863.186 304.332 859.792 304.332C856.492 304.332 853.587 303.612 851.076 302.171C848.613 300.73 846.753 298.894 845.498 296.662V303.705H839.153V252.107H845.498V272.607ZM871.436 284.46C871.436 281.578 870.855 279.068 869.693 276.93C868.531 274.792 866.951 273.165 864.952 272.049C863 270.933 860.838 270.376 858.467 270.376C856.143 270.376 853.982 270.957 851.983 272.119C850.031 273.234 848.45 274.885 847.241 277.069C846.079 279.208 845.498 281.695 845.498 284.53C845.498 287.412 846.079 289.945 847.241 292.13C848.45 294.268 850.031 295.919 851.983 297.081C853.982 298.196 856.143 298.754 858.467 298.754C860.838 298.754 863 298.196 864.952 297.081C866.951 295.919 868.531 294.268 869.693 292.13C870.855 289.945 871.436 287.389 871.436 284.46ZM902.937 304.332C899.358 304.332 896.104 303.519 893.176 301.892C890.294 300.265 888.016 297.964 886.343 294.989C884.716 291.967 883.902 288.481 883.902 284.53C883.902 280.625 884.739 277.186 886.412 274.211C888.132 271.189 890.456 268.888 893.385 267.308C896.313 265.681 899.591 264.867 903.216 264.867C906.842 264.867 910.119 265.681 913.048 267.308C915.976 268.888 918.277 271.166 919.951 274.141C921.67 277.116 922.53 280.579 922.53 284.53C922.53 288.481 921.647 291.967 919.881 294.989C918.161 297.964 915.813 300.265 912.838 301.892C909.863 303.519 906.563 304.332 902.937 304.332ZM902.937 298.754C905.215 298.754 907.353 298.22 909.352 297.15C911.351 296.081 912.955 294.478 914.163 292.339C915.418 290.201 916.046 287.598 916.046 284.53C916.046 281.462 915.442 278.859 914.233 276.721C913.024 274.582 911.444 273.002 909.492 271.979C907.539 270.91 905.424 270.376 903.147 270.376C900.822 270.376 898.684 270.91 896.732 271.979C894.826 273.002 893.292 274.582 892.13 276.721C890.968 278.859 890.387 281.462 890.387 284.53C890.387 287.644 890.944 290.271 892.06 292.409C893.222 294.547 894.756 296.151 896.662 297.22C898.568 298.243 900.66 298.754 902.937 298.754ZM928.502 284.46C928.502 280.556 929.293 277.139 930.873 274.211C932.453 271.236 934.615 268.935 937.358 267.308C940.147 265.681 943.261 264.867 946.701 264.867C949.676 264.867 952.442 265.565 954.998 266.959C957.555 268.307 959.507 270.097 960.855 272.328V252.107H967.27V303.705H960.855V296.523C959.6 298.801 957.741 300.683 955.277 302.171C952.813 303.612 949.931 304.332 946.631 304.332C943.238 304.332 940.147 303.496 937.358 301.822C934.615 300.149 932.453 297.801 930.873 294.78C929.293 291.758 928.502 288.319 928.502 284.46ZM960.855 284.53C960.855 281.648 960.274 279.138 959.112 277C957.95 274.861 956.369 273.234 954.371 272.119C952.418 270.957 950.257 270.376 947.886 270.376C945.515 270.376 943.354 270.933 941.402 272.049C939.449 273.165 937.892 274.792 936.73 276.93C935.568 279.068 934.987 281.578 934.987 284.46C934.987 287.389 935.568 289.945 936.73 292.13C937.892 294.268 939.449 295.919 941.402 297.081C943.354 298.196 945.515 298.754 947.886 298.754C950.257 298.754 952.418 298.196 954.371 297.081C956.369 295.919 957.95 294.268 959.112 292.13C960.274 289.945 960.855 287.412 960.855 284.53ZM1010.9 265.495L987.894 321.694H981.339L988.87 303.286L973.46 265.495H980.503L992.496 296.453L1004.35 265.495H1010.9Z" fill="white"/>
</svg>
